<svg width="22" height="24" viewBox="0 0 22 24" fill="none" xmlns="http://www.w3.org/2000/svg">
<path d="M14.0341 8.69023C16.6014 11.4938 16.5662 15.9886 14.0496 18.7491C14.0449 18.7548 14.0393 18.7609 14.0341 18.7665L11.1466 21.9165C8.59987 24.6948 4.45644 24.6944 1.91007 21.9165C-0.63669 19.1387 -0.63669 14.618 1.91007 11.8402L3.50447 10.1009C3.92728 9.63963 4.65543 9.9462 4.67726 10.598C4.7051 11.4288 4.84165 12.2634 5.09362 13.0693C5.17896 13.3422 5.11799 13.6441 4.93107 13.848L4.36874 14.4615C3.1645 15.7752 3.12673 17.9143 4.31911 19.2409C5.52327 20.5805 7.50249 20.5885 8.71589 19.2648L11.6034 16.1152C12.8147 14.7938 12.8097 12.6579 11.6034 11.3419C11.4444 11.1688 11.2842 11.0343 11.159 10.9403C11.0705 10.874 10.9974 10.786 10.9456 10.6834C10.8938 10.5808 10.8647 10.4664 10.8605 10.3494C10.8435 9.85404 11.0044 9.34362 11.3632 8.95221L12.2679 7.96526C12.5051 7.70646 12.8772 7.67468 13.1523 7.88412C13.4674 8.12409 13.7624 8.39384 14.0341 8.69023ZM20.0899 2.08357C17.5436 -0.694336 13.4001 -0.694711 10.8534 2.08357L7.96587 5.23357C7.96071 5.2392 7.95513 5.24529 7.9504 5.25091C5.43389 8.01148 5.39862 12.5063 7.96587 15.3098C8.23755 15.6062 8.53261 15.8759 8.84763 16.1159C9.12272 16.3253 9.49491 16.2935 9.7321 16.0347L10.6368 15.0478C10.9956 14.6564 11.1564 14.146 11.1394 13.6506C11.1353 13.5336 11.1062 13.4192 11.0543 13.3166C11.0025 13.214 10.9294 13.126 10.8409 13.0597C10.7158 12.9657 10.5556 12.8312 10.3966 12.6581C9.19031 11.3421 9.18524 9.20623 10.3966 7.88477L13.2841 4.73524C14.4975 3.41154 16.4766 3.41951 17.6808 4.75915C18.8732 6.08571 18.8355 8.2248 17.6312 9.53852L17.0689 10.152C16.882 10.3559 16.821 10.6578 16.9063 10.9307C17.1583 11.7366 17.2949 12.5712 17.3227 13.402C17.3446 14.0538 18.0727 14.3604 18.4955 13.8991L20.0899 12.1598C22.6367 9.38201 22.6367 4.86138 20.0899 2.08357Z" fill="black"/>
</svg>
